<svg width="22" height="22" viewBox="0 0 22 22" fill="none" xmlns="http://www.w3.org/2000/svg">
<path d="M9.16663 17.4167C9.16663 18.425 9.99163 19.25 11 19.25C12.0083 19.25 12.8333 18.425 12.8333 17.4167C12.8333 16.4083 12.0083 15.5833 11 15.5833C9.99163 15.5833 9.16663 16.4083 9.16663 17.4167Z" fill="black"/>
<path d="M9.16663 4.58317C9.16663 5.5915 9.99163 6.4165 11 6.4165C12.0083 6.4165 12.8333 5.5915 12.8333 4.58317C12.8333 3.57484 12.0083 2.74984 11 2.74984C9.99163 2.74984 9.16663 3.57484 9.16663 4.58317Z" fill="black"/>
<path d="M9.16663 11.0002C9.16663 12.0085 9.99163 12.8335 11 12.8335C12.0083 12.8335 12.8333 12.0085 12.8333 11.0002C12.8333 9.99183 12.0083 9.16683 11 9.16683C9.99163 9.16683 9.16663 9.99183 9.16663 11.0002Z" fill="black"/>
</svg>
